<svg xmlns="http://www.w3.org/2000/svg" viewBox="0 0 37.27 23.61"><defs><style>.cls-1{fill:#8bc53f;stroke:#fff;stroke-miterlimit:22.93;stroke-width:0.25px;fill-rule:evenodd;}</style></defs><title>Ресурс 1</title><g id="Слой_2" data-name="Слой 2"><g id="Layer_1" data-name="Layer 1"><g id="шапка"><path class="cls-1" d="M10,4.89H27.24V8.67a2.8,2.8,0,0,0,2.6,2.61l.8.14,3.89.66a2.48,2.48,0,0,0,2.61-2.61V4.78c0-5.89-37-6.52-37,0V9.47c0,1.44,1.19,2.85,2.6,2.61l3.94-.67.75-.13A2.8,2.8,0,0,0,10,8.67Z"/><path class="cls-1" d="M31.67,19.9l-.91-7.53-1.07-.18A4.41,4.41,0,0,1,27.29,11a3.24,3.24,0,0,1-1-2.34V5.82H11V8.67A3.23,3.23,0,0,1,10,11a4.47,4.47,0,0,1-2.4,1.18l-1,.17.13-.95.73-.13-.75.13L5.6,19.9c-.25,2,1.61,3.59,3.58,3.59h18.9A3.47,3.47,0,0,0,31.67,19.9Zm-13-1.09a4.19,4.19,0,1,1,4.2-4.19A4.19,4.19,0,0,1,18.63,18.81Z"/></g></g></g></svg>