<svg xmlns="http://www.w3.org/2000/svg" viewBox="0 0 11.11 24.04"><defs><style>.cls-1{fill:#8bc53f;fill-rule:evenodd;}</style></defs><title>Ресурс 5</title><g id="Слой_2" data-name="Слой 2"><g id="Layer_1" data-name="Layer 1"><g id="шапка"><path class="cls-1" d="M7.39,6c0-.55,0-1.24.32-1.55l3.38-.34V0C10.44,0,9.68,0,9,0S7.67,0,7,0a5.17,5.17,0,0,0-3,1.1c-1.07,1.73-1.49.24-1.5,6.75H0V12H2.45a2.77,2.77,0,0,1,0,.71V24H7.37c0-3,0-6,0-9,0,0,0-2.89,0-2.95a.12.12,0,0,1,0-.05s3.11,0,3.22,0l.06,0,.43-4.12H7.39C7.37,7.28,7.39,6.66,7.39,6Z"/></g></g></g></svg>