<svg xmlns="http://www.w3.org/2000/svg" viewBox="0 0 26.58 26.7"><defs><style>.cls-1{fill:#8bc53f;}</style></defs><title>Ресурс 3</title><g id="Слой_2" data-name="Слой 2"><g id="Layer_1" data-name="Layer 1"><g id="шапка"><path class="cls-1" d="M25.87,16.17a12.28,12.28,0,0,0,.3-2.73A12.64,12.64,0,0,0,13.54.81,12.39,12.39,0,0,0,11.16,1,7.38,7.38,0,0,0,0,7.38a7.28,7.28,0,0,0,1.1,3.87,12.22,12.22,0,0,0-.19,2.19A12.62,12.62,0,0,0,13.54,26.07a12.92,12.92,0,0,0,2.26-.2,7.38,7.38,0,0,0,10.78-6.55A7.21,7.21,0,0,0,25.87,16.17Zm-7.38,4.55a8.39,8.39,0,0,1-5.35,1.52C9.4,22.24,7,20.81,6,18a1.66,1.66,0,0,1-.2-.79A1.62,1.62,0,0,1,9,16.74H9A4,4,0,0,0,13.3,19.9a4.11,4.11,0,0,0,2.6-.71,2.17,2.17,0,0,0,.89-1.75A2.09,2.09,0,0,0,16.18,16a8.09,8.09,0,0,0-3-1.39,28.3,28.3,0,0,1-3.72-1.31,5.29,5.29,0,0,1-1.94-1.59,3.9,3.9,0,0,1-.8-2.4A4.2,4.2,0,0,1,8.45,5.9a7.49,7.49,0,0,1,4.74-1.39q5.16,0,6.64,4a1.59,1.59,0,0,1,.14.66,1.58,1.58,0,0,1-3.13.29h0a4.4,4.4,0,0,0-1.4-2,3.86,3.86,0,0,0-2.38-.65,3.21,3.21,0,0,0-2.16.66A2,2,0,0,0,10.13,9,1.7,1.7,0,0,0,11,10.5a15,15,0,0,0,3.42,1.34,21,21,0,0,1,3.36,1.26,5.38,5.38,0,0,1,1.91,1.61,3.9,3.9,0,0,1,.73,2.34A4.52,4.52,0,0,1,18.49,20.72Z"/></g></g></g></svg>