<svg xmlns="http://www.w3.org/2000/svg" viewBox="0 0 28.87 29"><defs><style>.cls-1{fill:#3d979f;}</style></defs><title>Ресурс 8</title><g id="Слой_2" data-name="Слой 2"><g id="реабилитация"><g id="Лоза"><path class="cls-1" d="M28.11,17.56a14.35,14.35,0,0,0,.32-3A13.7,13.7,0,0,0,12.12,1.13,7.93,7.93,0,0,0,8,0,8,8,0,0,0,1.19,12.22,14.43,14.43,0,0,0,1,14.6,13.73,13.73,0,0,0,14.71,28.32a13.21,13.21,0,0,0,2.45-.22,7.92,7.92,0,0,0,3.69.9,8,8,0,0,0,7.26-11.44Zm-8,5a9.13,9.13,0,0,1-5.81,1.65q-6.1,0-7.81-4.64a1.8,1.8,0,0,1-.22-.86A1.77,1.77,0,0,1,8,16.89a1.78,1.78,0,0,1,1.71,1.29h0q.9,3.43,4.71,3.43a4.39,4.39,0,0,0,2.82-.77,2.35,2.35,0,0,0,1-1.9,2.21,2.21,0,0,0-.67-1.53,8.33,8.33,0,0,0-3.31-1.51,33.41,33.41,0,0,1-4-1.43,5.71,5.71,0,0,1-2.1-1.73,4.18,4.18,0,0,1-.87-2.6A4.57,4.57,0,0,1,9.18,6.41,8.13,8.13,0,0,1,14.33,4.9q5.61,0,7.21,4.37a1.88,1.88,0,0,1,.15.71,1.71,1.71,0,0,1-3.39.32h0a4.89,4.89,0,0,0-1.53-2.18,4.24,4.24,0,0,0-2.59-.7,3.45,3.45,0,0,0-2.34.71A2.15,2.15,0,0,0,11,9.78a1.87,1.87,0,0,0,.93,1.63,16.86,16.86,0,0,0,3.71,1.45,23.76,23.76,0,0,1,3.65,1.37A5.75,5.75,0,0,1,21.37,16a4.21,4.21,0,0,1,.79,2.54A5,5,0,0,1,20.09,22.51Z"/></g></g></g></svg>