<svg xmlns="http://www.w3.org/2000/svg" viewBox="0 0 68.01 87.19"><defs><style>.cls-1{fill:none;stroke:#3d979f;stroke-linecap:round;stroke-linejoin:round;stroke-width:2px;fill-rule:evenodd;}.cls-2{fill:#3d979f;}</style></defs><title>Ресурс 10</title><g id="Слой_2" data-name="Слой 2"><g id="Детокс"><path class="cls-1" d="M57.42,18.08A28.21,28.21,0,0,1,1,18.08Z"/><path class="cls-1" d="M44.52,85a16.43,16.43,0,0,0-30.66.1Z"/><path class="cls-2" d="M29.21,75.51a1,1,0,0,1-1-1l-2-28.22c0-.55,2.45-1,3-1s3,.45,3,1l-2,28.22A1,1,0,0,1,29.21,75.51Z"/><path class="cls-2" d="M27.23,61c-.37,0-.1-5.12.38-5.32C56.46,43.23,62.55,34.83,66.09,21.14,67.92,14.05,63.21,7.25,57.5,4S45.14,1.29,38.87,5.38c-3.47,5.36-6.5,7.87-8.54,7.1a2.19,2.19,0,0,1-1.21-2.59c.34-2.17,3-5.71,8.76-6.11,6.87-4.47,14.35-5,20.55-1.44s10,10.88,9.54,18.9c-.38,6.67-4.48,23.58-34.3,36.44C33.55,57.73,27.35,61,27.23,61Z"/><path class="cls-2" d="M58.89,87.19a1,1,0,0,1-.8-.41c-7-9.6-21-14-31.27-17.13C19.52,67.38,15.11,66,15,63.38c-.1-1.74,7.52-5.59,11.93-7.55.51-.22,1.39,5.28.89,5.5-4.89,2.17-5,5-.36,6.41C37.91,71,52.28,75.46,59.7,85.59a1,1,0,0,1-.22,1.4A1,1,0,0,1,58.89,87.19Z"/></g></g></svg>