<svg xmlns="http://www.w3.org/2000/svg" viewBox="0 0 43.15 40.5"><defs><style>.cls-1{fill:none;stroke:#3d979f;stroke-linecap:round;stroke-linejoin:round;stroke-width:1.5px;fill-rule:evenodd;}</style></defs><title>Ресурс 14</title><g id="Слой_2" data-name="Слой 2"><g id="РЦСумароково"><path class="cls-1" d="M40.25,3.58c1,.84,1.83,1.37,2.15,3-.86.43-1.73-.93-2.44-.14,0,0,0,.06-.08.23.77,1.32,1.11,3.37-1,2-.16,3.71,1.87,5.56,1.44,9.54a11.59,11.59,0,0,1-3.78,7.26c-3.36,2.76-4.47,1.92-6.81,4.24C25.41,34.1,24.82,33,23,34c-.3,3.24,1.12,4.26,4.12,4.61.95.11,2.08-.14,1.94,1a56.87,56.87,0,0,1-9.32,0c-.38-1,1.31-.74,1.86-1.23s-.07-1.69-.32-2.28-.67-1.77-1.23-2c-.84-.35-5.77-.21-9.32-6.62-.76-1.37-1.23-3-2-4.43C6,17.46.87,18.73,2.67,12.41c.21-.72-.65-1.77-.54-2.6S0,8.44,1,7.82C4.65,5.5,7.11,4.43,12.06,7.1c2.09,1.13,4.74,4.22,7.75,4.89a7.79,7.79,0,0,0,5.39-.66,9.1,9.1,0,0,0,3-3.36,29.92,29.92,0,0,1,2.67-3.72c1.72-1.9,4-3.86,6.66-3.44a3.7,3.7,0,0,1,1.92.72A3.24,3.24,0,0,1,40.25,3.58Z"/></g></g></svg>