<svg xmlns="http://www.w3.org/2000/svg" viewBox="0 0 47.21 43.5"><defs><style>.cls-1{fill:none;stroke:#3d979f;stroke-linecap:round;stroke-linejoin:round;stroke-width:1.5px;fill-rule:evenodd;}</style></defs><title>Ресурс 15</title><g id="Слой_2" data-name="Слой 2"><g id="РЦСумароково"><path class="cls-1" d="M3.64,10.88a1,1,0,0,1-.5-1.37c.06-.18-.09-.37-.22-.55a1.43,1.43,0,0,1-.29-.56,1,1,0,0,1,.07-.58l.14-.14a1,1,0,0,1,.79-.15,1.34,1.34,0,0,0,.4,0c.2,0,.38-.57.58-.73A.64.64,0,0,1,5,6.67a1.5,1.5,0,0,1,.83.47h0c.1.06.19.16.29.17s.54-.49.65-.58a.59.59,0,0,1,.35-.13c.27,0,.5.24.7.46A.55.55,0,0,1,8,6.88c.1-.1.64-.43.66-.56A.63.63,0,0,0,8.51,6h0a1.42,1.42,0,0,1-.33-.9.56.56,0,0,1,.18-.38c.19-.18.74-.27.81-.47a1.68,1.68,0,0,0,.05-.4,1.08,1.08,0,0,1,.27-.76L9.64,3a.89.89,0,0,1,.58,0,1.58,1.58,0,0,1,.51.37c.16.15.32.33.51.3a1,1,0,0,1,1.28.68c.12.23.18.11.29.1s0,0,0,0h0a.09.09,0,0,1,.06,0,1.92,1.92,0,0,1,0-.29c.05,0,.07-.12.17-.2l.21-.17c.07,0,.11,0,.21,0h0s0,0,0,0,.22,0,.19-.24a1,1,0,0,1,.7-1.27c.18-.08.22-.32.27-.54a1.67,1.67,0,0,1,.22-.58,1.1,1.1,0,0,1,.48-.33h.2a1.09,1.09,0,0,1,.64.49,1.64,1.64,0,0,0,.26.31c.17.12.68-.1.93-.05a.62.62,0,0,1,.37.22,1.39,1.39,0,0,1,.2.93h0c0,.11,0,.24.07.33s.72.07.86.1a.58.58,0,0,1,.33.18.77.77,0,0,1,.14.57.66.66,0,0,1,.24-.36l.17-.1a.91.91,0,0,1,.58.06,1.43,1.43,0,0,1,.48.39c.15.17.3.36.49.34A1,1,0,0,1,22.6,5c.1.23.16.11.28.11s0,0,0,0V5c.08,0,.15,0,.21-.06l.27,0c.12,0,.18.09.24.1a.83.83,0,0,1,.28.53,2.29,2.29,0,0,1,0,.52v.07c.22,0,.31.21.44.24a3.31,3.31,0,0,0-.09-1,2.22,2.22,0,0,1,0-.52.8.8,0,0,1,.23-.55,2.17,2.17,0,0,1,.23-.12L25,4.23c.07,0,.13,0,.22,0v0s0,0,0,0,.19.11.27-.14a1,1,0,0,1,1.16-.87c.2,0,.33-.2.47-.38a1.54,1.54,0,0,1,.44-.44,1,1,0,0,1,.57-.1l.18.09a1.09,1.09,0,0,1,.38.71,1.89,1.89,0,0,0,.11.38c.1.19.66.2.87.34a.58.58,0,0,1,.25.35,1.46,1.46,0,0,1-.2.94h0a.78.78,0,0,0-.07.33c0,.12.62.36.74.45a.56.56,0,0,1,.23.29c.09.26-.09.56-.24.83h0l-.09.16h0c-.06.13-.14.25-.21.38a.37.37,0,0,0,.26,0,1.9,1.9,0,0,0,.29-.28,1.12,1.12,0,0,1,.68-.44h.2a1.06,1.06,0,0,1,.45.37,1.61,1.61,0,0,1,.17.6c0,.23.05.46.22.56a1,1,0,0,1,.58,1.33c0,.25.08.19.17.25s0,0,0,0h0c.1,0,.14.06.21.07l.19.19c.09.08.11.17.15.21a.83.83,0,0,1-.07.59,2.44,2.44,0,0,1-.27.45,2.49,2.49,0,0,1-.19.23l0,0a2.42,2.42,0,0,0,.19.36c.14.16.68,0,.92.15a.57.57,0,0,1,.31.3,1.4,1.4,0,0,1,0,.95h0a.62.62,0,0,0,0,.33c.06.11.68.23.81.29a.56.56,0,0,1,.29.25,1.17,1.17,0,0,1-.07.85h0l-.06.18h0c-.09.31-.21.61-.29.93a1,1,0,0,0,0,.45c0,.16.13.17.29.23s.51.27.55.52a1.06,1.06,0,0,1-.26.78h0c0,.19-1.1,1.23-1.2,1.65,0,.14,0,.18.13.23a2.6,2.6,0,0,1,.44.23c.13,0,.19.12.27.13a2.36,2.36,0,0,0-.09-.6,1.48,1.48,0,0,1,0-.31.56.56,0,0,1,.12-.34s.07-.05.14-.07l.16-.05s.07,0,.13,0h0c.07,0,.12.05.16-.09.1-.35.21-.54.67-.56.11,0,.19-.13.27-.24a.76.76,0,0,1,.25-.28.59.59,0,0,1,.34-.08l.11.05a.68.68,0,0,1,.25.42.83.83,0,0,0,.08.22c.06.11.39.1.53.18a.32.32,0,0,1,.15.2.8.8,0,0,1-.09.57h0a.36.36,0,0,0,0,.2c0,.07.38.2.45.25a.35.35,0,0,1,.15.17c.06.15,0,.34-.12.5h0l-.05.1h0c-.08.17-.18.34-.26.52a.7.7,0,0,0-.06.27c0,.1.06.11.15.16a.47.47,0,0,1,.28.36.67.67,0,0,1-.23.44h0c-.05.11-.76.63-.86.87a.1.1,0,0,0,0,.15c.37.23.59.5.33.87,0,.05-.22.25-.23.28s-.15.17-.2.2h0s-.12.13-.23.23.09,0,.16.06.32.13.36.27A.62.62,0,0,1,38,26h0c0,.12-.58.81-.61,1.06,0,.09,0,.11.09.13.42.13.7.33.54.76l-.15.32s-.1.22-.14.26h0c-.05.1-.42.73-.46.76h0a14.43,14.43,0,0,1-.84,1.25l-.07.08c3.3,2.26,6.36,4.65,9.9,6.78.62.37-.94,1.2-1,1.91,0,.46.41.24.23.65a4.45,4.45,0,0,1-2.23,2.29c-.44.19-.19-.3-.67-.32s-1.15,1.15-1.37.69a33.14,33.14,0,0,0-6.82-9h0l-.05,0a8,8,0,0,0-1.76,1.28l-.17.13a.59.59,0,0,1-.43.17.24.24,0,0,1-.14-.05.38.38,0,0,1-.19-.53c-.16,0-.44.35-.54.46l-.16.17-.36.29c-.23.16-.65.43-.88.18s-.09-.33-.1-.48-.38,0-.54.12c0,0,0,.06,0,.08a2.84,2.84,0,0,1-.15.44c-.1.25-.31.71-.64.62s-.26-.24-.35-.35-.37.36-.42.46a7.88,7.88,0,0,1-.47.87,1.34,1.34,0,0,1-.11.14.8.8,0,0,1-.35.23.57.57,0,0,1-.39,0c-.17-.1-.08-.29-.14-.38s-.35.42-.46.55a1.25,1.25,0,0,1-.25.27.58.58,0,0,1-.39.16,1.84,1.84,0,0,1-.18-.06l-.17-.1s-.06-.06-.08-.13h0s0,0,0,0,0-.15-.2-.07a.72.72,0,0,1-1-.15.5.5,0,0,0-.42,0,1.12,1.12,0,0,1-.45,0,.69.69,0,0,1-.34-.24l0-.13a.79.79,0,0,1,.17-.55,1,1,0,0,0,.14-.25c0-.14-.23-.43-.27-.61a.47.47,0,0,1,0-.21c-.23-.26-.13-.46-.15-.66s-.72.17-.85.26a12.66,12.66,0,0,1-1.19.7l-.24.09a1.24,1.24,0,0,1-.58,0,.89.89,0,0,1-.47-.3c-.14-.25.11-.4.11-.55-.16-.05-.74.24-1,.33a2.34,2.34,0,0,1-.49.14.89.89,0,0,1-.6-.09c0-.06-.1-.09-.16-.2l-.13-.24c0-.07,0-.12,0-.22v0s0,0,0,0,.05-.2-.2-.23a1.05,1.05,0,0,1-.93-.42,1,1,0,0,1-.33.11.84.84,0,0,1-.54-.11c-.22-.18,0-.42-.1-.56-.17,0-.6.5-.77.66a2.86,2.86,0,0,1-.42.31.81.81,0,0,1-.58.12c-.05,0-.13,0-.23-.12l-.21-.18c0-.06-.07-.1-.09-.2v0s0,0,0,0,0-.21-.26-.14a1,1,0,0,1-1.38-.45c-.12-.16-.35-.16-.58-.17a1.48,1.48,0,0,1-.61-.11,1.1,1.1,0,0,1-.42-.41l0-.2a1.07,1.07,0,0,1,.36-.72A2.38,2.38,0,0,0,9.38,32c.09-.18-.22-.65-.23-.91a.61.61,0,0,1,.15-.39,1.46,1.46,0,0,1,.88-.38h0a.62.62,0,0,0,.31-.13c.08-.1-.06-.72-.05-.86a.57.57,0,0,1,.11-.36h0c-.1,0-.17.12-.25.18h0a1.45,1.45,0,0,1-.8.53.61.61,0,0,1-.41-.1c-.22-.15-.43-.67-.63-.69a1.89,1.89,0,0,0-.4,0,1.06,1.06,0,0,1-.8-.09l-.15-.14A1,1,0,0,1,7,28.12a1.58,1.58,0,0,1,.25-.57c.12-.19.25-.39.18-.57a1.17,1.17,0,0,1-.08-.8.43.43,0,0,1-.15-.09c-.19-.21,0-.42,0-.56s-.66.4-.85.53a2.9,2.9,0,0,1-.46.26.88.88,0,0,1-.59,0c0-.05-.13-.07-.21-.16L4.89,26c0-.07-.06-.11-.06-.21v0s0,0,0,0,0-.22-.24-.18a1,1,0,0,1-1.31-.64c-.09-.17-.32-.21-.54-.24a1.58,1.58,0,0,1-.59-.2A1,1,0,0,1,1.79,24v-.2a1.09,1.09,0,0,1,.47-.66,1.89,1.89,0,0,0,.29-.27c.12-.17-.13-.67-.09-.93a.56.56,0,0,1,.2-.37,1.41,1.41,0,0,1,.92-.25h0c.11,0,.24,0,.32-.09s.05-.71.07-.86a.64.64,0,0,1,.16-.34A1.19,1.19,0,0,1,5,19.91v0h.2c.32,0,.65.05,1,0a1,1,0,0,0,.44-.08c.15-.07.13-.17.15-.34,0-.32.12-.56.35-.66a1.1,1.1,0,0,1,.74,0,.08.08,0,0,0,0-.08h0c-.12-.15-.74.07-.86.11s-1.17.31-1.35.33H5.35a1.19,1.19,0,0,1-.57-.13.93.93,0,0,1-.36-.42c-.06-.29.22-.36.26-.51a3.59,3.59,0,0,0-1,.05,3.06,3.06,0,0,1-.52,0A.87.87,0,0,1,2.62,18a1.06,1.06,0,0,1-.1-.25l-.06-.26c0-.06,0-.13,0-.21l0,0s0,0,0,0,.12-.18-.12-.27a1,1,0,0,1-.81-1.21c0-.19-.18-.34-.35-.48a1.66,1.66,0,0,1-.42-.47,1,1,0,0,1-.07-.58l.1-.17a1.07,1.07,0,0,1,.73-.34A2,2,0,0,0,2,13.64c.19-.09.23-.65.38-.85a.55.55,0,0,1,.37-.22,1.42,1.42,0,0,1,.92.24h0c.11,0,.22.11.33.09s.24-.31.36-.52a1.52,1.52,0,0,1-.28-.09.88.88,0,0,1-.46-.38c0-.07,0-.14,0-.26v-.27c0-.06,0-.13.1-.19l0,0h0C3.71,11.06,3.84,11,3.64,10.88Z"/><path class="cls-1" d="M10.79,16.9l-.19,0a1.61,1.61,0,0,1-.36-.1c-.27-.11-.26-.2-.34-.28a1.52,1.52,0,0,1,0-.19v-.2S9.9,16,10,16h0s0,0,0,0,.12-.11,0-.22a.76.76,0,0,1-.36-1c0-.13-.06-.27-.16-.4a1.14,1.14,0,0,1-.21-.41.67.67,0,0,1,.05-.42l.1-.11a.79.79,0,0,1,.58-.11,1.4,1.4,0,0,0,.29,0c.15,0,.28-.41.43-.53a.41.41,0,0,1,.29-.1,1.14,1.14,0,0,1,.62.34h0c.07,0,.13.11.21.12s.39-.36.48-.42a.4.4,0,0,1,.25-.1c.2,0,.37.18.53.35h0l.07.08"/><path class="cls-1" d="M21.48,14.93l-.16-.11a2.29,2.29,0,0,1-.27-.27.6.6,0,0,1-.16-.4s0-.11.07-.19l.1-.17c.05,0,.07-.06.13-.08h0s0,0,0,0,.15,0,.07-.21a.76.76,0,0,1,.16-1.05c.1-.09.08-.27.06-.43a1,1,0,0,1,0-.46.62.62,0,0,1,.25-.34l.14-.05a.82.82,0,0,1,.56.18,1.1,1.1,0,0,0,.25.15c.15,0,.44-.23.63-.27a.44.44,0,0,1,.31.07,1,1,0,0,1,.37.59h0c0,.07.06.17.13.21s.51-.13.62-.14A.39.39,0,0,1,25,12c.18.09.24.34.29.55h0l0,.11"/><path class="cls-1" d="M17.38,28.29l-.19,0a1.63,1.63,0,0,1-.38,0,.63.63,0,0,1-.4-.18c0-.05-.05-.09-.08-.18l0-.19c0-.05,0-.09,0-.16h0c0-.09.08-.14-.09-.21a.75.75,0,0,1-.61-.87c0-.14-.13-.25-.26-.35a1.1,1.1,0,0,1-.31-.34A.77.77,0,0,1,15,25.4l.08-.13a.81.81,0,0,1,.53-.26.82.82,0,0,0,.28-.07c.14-.06.16-.47.27-.62a.43.43,0,0,1,.27-.17,1.13,1.13,0,0,1,.68.17h0c.08,0,.16.08.24.06s.28-.45.35-.53a.46.46,0,0,1,.22-.16c.19-.05.41.09.6.2h0l.09.06"/><path class="cls-1" d="M26,25.93l-.16-.09a1.26,1.26,0,0,1-.31-.22.59.59,0,0,1-.21-.38.54.54,0,0,1,0-.19l.07-.18c.05,0,.06-.08.12-.11h0s0,0,0,0,.14-.06,0-.22a.75.75,0,0,1,0-1.06c.08-.12,0-.28,0-.44a1.25,1.25,0,0,1,0-.46.71.71,0,0,1,.2-.37l.13-.07a.84.84,0,0,1,.58.11,1.92,1.92,0,0,0,.27.11c.15,0,.41-.29.59-.35a.4.4,0,0,1,.31,0,1,1,0,0,1,.45.53h0c0,.07.08.16.15.19s.49-.19.6-.22a.41.41,0,0,1,.27,0c.19.07.28.3.37.51h0l0,.1"/></g></g></svg>