<svg version="1.1" xmlns="http://www.w3.org/2000/svg" xmlns:xlink="http://www.w3.org/1999/xlink" x="0px" y="0px"
	 width="16.4px" height="16.4px" viewBox="0 0 16.4 16.4" enable-background="new 0 0 16.4 16.4" xml:space="preserve">
			<path fill="#3C474B" d="M11.827,16.35H4.573c-2.494,0-4.523-2.03-4.523-4.524V4.574c0-2.494,2.029-4.524,4.523-4.524h7.254
				c2.494,0,4.523,2.03,4.523,4.524v7.253C16.35,14.321,14.321,16.35,11.827,16.35z"/>
			<path fill="#FFFFFF" d="M8.2,3.936c-2.352,0-4.264,1.913-4.264,4.264c0,2.35,1.913,4.263,4.264,4.263s4.264-1.913,4.264-4.263
				C12.464,5.849,10.552,3.936,8.2,3.936z"/>
		<circle fill-rule="evenodd" clip-rule="evenodd" fill="#FFFFFF" cx="12.936" cy="3.157" r="1.421"/>
</svg>
