<svg xmlns="http://www.w3.org/2000/svg" viewBox="0 0 16.25 16.25"><path class="icon" d="M11.74,16.25H4.51A4.51,4.51,0,0,1,0,11.74V4.51A4.51,4.51,0,0,1,4.51,0h7.23a4.51,4.51,0,0,1,4.51,4.51v7.23A4.51,4.51,0,0,1,11.74,16.25Zm-7.23-15A3.23,3.23,0,0,0,1.28,4.51v7.23A3.23,3.23,0,0,0,4.51,15h7.23A3.23,3.23,0,0,0,15,11.74V4.51a3.23,3.23,0,0,0-3.23-3.23Z"/><path class="icon" d="M8.13,12.33a4.21,4.21,0,1,1,4.2-4.2A4.21,4.21,0,0,1,8.13,12.33Zm0-7.13a2.93,2.93,0,1,0,2.92,2.93A2.93,2.93,0,0,0,8.13,5.2Z"/><circle class="icon" cx="12.47" cy="3.37" r="1.19"/></svg>