<svg xmlns="http://www.w3.org/2000/svg" viewBox="0 0 24.39 14.17"><path class="icon" d="M9.2,4.31V2.22a.46.46,0,0,0-.45-.53l-.12,0A.69.69,0,0,1,8.08.61a1.08,1.08,0,0,1,1-.59,3,3,0,0,1,.42,0c1,0,2.11,0,3.16,0a5.86,5.86,0,0,1,.93.09,1,1,0,0,1,.87,1.06c0,1.65,0,3.3,0,5a1.67,1.67,0,0,0,0,.32c0,.36.33.5.61.27A5.53,5.53,0,0,0,16,5.8a11.06,11.06,0,0,0,1.17-2.3c.34-.78.69-1.56,1-2.33a2.2,2.2,0,0,1,.15-.26.53.53,0,0,1,.55-.3h4.28a1.35,1.35,0,0,1,.63.14,1,1,0,0,1,.48,1.18,2.88,2.88,0,0,1-.48,1.19c-.49.66-1,1.32-1.5,2a19.89,19.89,0,0,0-1.78,2.5.47.47,0,0,0,.06.67c.9,1,1.81,2,2.7,3,.32.36.61.74.91,1.12a1.16,1.16,0,0,1-.85,1.74l-.75,0H19.38a1,1,0,0,1-.75-.27l-2.24-2.16c-.3-.29-.6-.59-.91-.87a.5.5,0,0,0-.89.22,6.51,6.51,0,0,0-.14,1c0,.39,0,.79-.1,1.19a1,1,0,0,1-.11.34.77.77,0,0,1-.81.55c-1.06,0-2.12,0-3.17-.05a1.67,1.67,0,0,1-.74-.22,9.92,9.92,0,0,1-3.21-2.58,47.81,47.81,0,0,1-4-5.14,31.06,31.06,0,0,1-2-3.51A5.33,5.33,0,0,1,0,1.8a1.23,1.23,0,0,1,.15-1A.4.4,0,0,1,.56.61H4.22a.74.74,0,0,1,.54.25,6.12,6.12,0,0,1,1,1.42,26.11,26.11,0,0,0,1.75,3c.3.42.62.83.92,1.25a.62.62,0,0,0,.52.26c.21,0,.28-.06.3-.28V4.31Z"/></svg>