<svg xmlns="http://www.w3.org/2000/svg" viewBox="0 0 34.45 20.02"><defs><style>.cls-1{fill:#8bc53f;}</style></defs><title>Ресурс 4</title><g id="Слой_2" data-name="Слой 2"><g id="Layer_1" data-name="Layer 1"><g id="шапка"><path class="cls-1" d="M13,6.09v-3c0-.47-.18-.66-.64-.74l-.17,0a1,1,0,0,1-.77-1.5A1.52,1.52,0,0,1,12.79,0a5.81,5.81,0,0,1,.59,0c1.49,0,3,0,4.46,0a7.3,7.3,0,0,1,1.32.14,1.4,1.4,0,0,1,1.23,1.48c0,2.34,0,4.67,0,7a3.4,3.4,0,0,0,0,.45c.08.51.47.7.87.37A7.57,7.57,0,0,0,22.58,8.2a14.73,14.73,0,0,0,1.66-3.26l1.47-3.29c.06-.13.14-.24.21-.37a.79.79,0,0,1,.79-.42h6a2.23,2.23,0,0,1,.89.2,1.38,1.38,0,0,1,.68,1.67,4.08,4.08,0,0,1-.69,1.68c-.68.94-1.38,1.87-2.11,2.78A27.31,27.31,0,0,0,29,10.74a.65.65,0,0,0,.08.94c1.27,1.42,2.55,2.82,3.82,4.24.44.51.85,1,1.27,1.58A1.64,1.64,0,0,1,33,20c-.35,0-.71,0-1.07,0H27.38a1.41,1.41,0,0,1-1.06-.38c-1.06-1-2.11-2-3.16-3.06-.43-.41-.85-.83-1.29-1.23a.72.72,0,0,0-1.26.31,8.36,8.36,0,0,0-.19,1.42c-.06.56-.08,1.12-.14,1.68a2.08,2.08,0,0,1-.16.48A1.09,1.09,0,0,1,19,20c-1.5,0-3,0-4.49-.07a2.61,2.61,0,0,1-1-.31A14.21,14.21,0,0,1,8.91,16,65.46,65.46,0,0,1,3.32,8.73a43.15,43.15,0,0,1-2.81-5A8,8,0,0,1,.06,2.54a1.76,1.76,0,0,1,.2-1.36A.56.56,0,0,1,.79.87H6a1,1,0,0,1,.77.36,7.91,7.91,0,0,1,1.35,2,34.57,34.57,0,0,0,2.48,4.2c.42.6.86,1.19,1.3,1.78a.86.86,0,0,0,.72.37c.3,0,.41-.1.42-.4,0-.1,0-.2,0-.31V6.09Z"/></g></g></g></svg>