<svg xmlns="http://www.w3.org/2000/svg" viewBox="0 0 25.91 25.91"><defs><style>.cls-1{fill:#8bc53f;}</style></defs><title>Ресурс 6</title><g id="Слой_2" data-name="Слой 2"><g id="Layer_1" data-name="Layer 1"><g id="шапка"><path class="cls-1" d="M18.72,25.91H7.19A7.2,7.2,0,0,1,0,18.72V7.19A7.2,7.2,0,0,1,7.19,0H18.72a7.2,7.2,0,0,1,7.19,7.19V18.72A7.2,7.2,0,0,1,18.72,25.91ZM7.19,2A5.16,5.16,0,0,0,2,7.19V18.72a5.16,5.16,0,0,0,5.15,5.15H18.72a5.16,5.16,0,0,0,5.15-5.15V7.19A5.16,5.16,0,0,0,18.72,2Z"/><path class="cls-1" d="M13,19.66a6.71,6.71,0,1,1,6.7-6.7A6.72,6.72,0,0,1,13,19.66ZM13,8.29A4.67,4.67,0,1,0,17.62,13,4.67,4.67,0,0,0,13,8.29Z"/><circle class="cls-1" cx="19.88" cy="5.37" r="1.9"/></g></g></g></svg>