<svg xmlns="http://www.w3.org/2000/svg" viewBox="0 0 50.63 32"><defs><style>.cls-1,.cls-2{fill:none;stroke:#3d979f;stroke-linecap:round;stroke-linejoin:round;stroke-width:2px;}.cls-1,.cls-3{fill-rule:evenodd;}.cls-3{fill:#3d979f;}</style></defs><title>Ресурс 7</title><g id="Слой_2" data-name="Слой 2"><g id="реабилитация"><path class="cls-1" d="M42.4,5.5,34.62,1.41l-10.32.1L15.64,11.63c.6,1.09,2.15,3.56,3.7,3.11,3-.84,4.61-4.08,6.91-6.13L30.44,9l7.88,15.18c.71,1.37-2.59,4.27-3.61,2.81l-5.93-8.55"/><path class="cls-1" d="M24.11,21.41l4,6.49a2.52,2.52,0,0,0,3,.52"/><path class="cls-1" d="M19.83,24.53l3,4.89a2.4,2.4,0,0,0,2.59.71"/><path class="cls-1" d="M7.62,20.82H11c1.41,2.34,4.57,7.69,5.58,9.33a2.43,2.43,0,0,0,2.6.71"/><polyline class="cls-1" points="1 1 7.62 1 7.62 23.38 1 23.38"/><line class="cls-2" x1="7.62" y1="3.48" x2="17.27" y2="3.48"/><polyline class="cls-1" points="49.63 3 43.01 3 43.01 25.38 49.63 25.38"/><line class="cls-2" x1="43.01" y1="23.23" x2="37.82" y2="23.23"/><path class="cls-3" d="M48.38,21.43a1.51,1.51,0,1,0-1.51-1.5A1.51,1.51,0,0,0,48.38,21.43Z"/><path class="cls-3" d="M2.25,19.44A1.51,1.51,0,1,0,.74,17.93,1.52,1.52,0,0,0,2.25,19.44Z"/></g></g></svg>