<svg xmlns="http://www.w3.org/2000/svg" viewBox="0 0 84.88 82"><defs><style>.cls-1,.cls-2{fill:#fff;}.cls-1,.cls-2,.cls-3,.cls-4{stroke:#3d979f;stroke-linecap:round;stroke-linejoin:round;stroke-width:2px;}.cls-1,.cls-4{fill-rule:evenodd;}.cls-3,.cls-4{fill:#3d979f;}</style></defs><title>Ресурс 9</title><g id="Слой_2" data-name="Слой 2"><g id="_1консул" data-name="1консул"><path class="cls-1" d="M56.78,81H7.69A6.71,6.71,0,0,1,1,74.31V21.08l20.08-20H56.7a6.71,6.71,0,0,1,6.77,6.61V74.31A6.71,6.71,0,0,1,56.78,81Z"/><polygon class="cls-1" points="21.08 1 21.08 21.08 1 21.08 21.08 1"/><polyline class="cls-1" points="11.98 38.44 15.42 41.88 21 36.3"/><polyline class="cls-1" points="11.98 51.11 15.42 54.55 21 48.97"/><polyline class="cls-1" points="11.98 64.34 15.42 67.77 21 62.2"/><line class="cls-2" x1="26.74" y1="38.44" x2="47.45" y2="38.44"/><line class="cls-2" x1="26.74" y1="51.11" x2="39.8" y2="51.11"/><line class="cls-2" x1="26.74" y1="64.34" x2="35.02" y2="64.34"/><rect class="cls-3" x="47.55" y="33.82" width="35.7" height="16.57" transform="translate(-10.61 58.62) rotate(-45.03)"/><polygon class="cls-1" points="42.4 65.13 58.65 60.59 52.78 54.73 46.92 48.88 42.4 65.13"/><polygon class="cls-4" points="42.4 65.13 50.52 62.86 44.66 57 42.4 65.13"/></g></g></svg>